<svg width="437" height="400" viewBox="0 0 437 400" fill="none" xmlns="http://www.w3.org/2000/svg">
<path d="M338.153 62.2466C379.099 62.2466 436.75 83.3395 436.75 176.397C436.75 269.091 349.342 363.017 219.899 363.75L218.375 363.753C88.0944 363.753 0 269.455 0 176.397C0.000148183 83.3396 57.6514 62.2466 98.5967 62.2466C139.732 62.2466 182.713 72.5374 218.375 93.0171C254.037 72.5373 297.018 62.2466 338.153 62.2466Z" fill="#E7E0D8"/>
<path d="M0 176.397C0 83.3397 57.6512 62.2466 98.5966 62.2466C141.436 62.2466 186.277 73.4054 222.769 95.6122C295.381 98.0725 341.211 184.745 341.211 247.121C341.211 291.789 302.845 363.753 218.375 363.753C88.0946 363.753 0 269.455 0 176.397Z" fill="url(#paint0_linear_566_1024)" fill-opacity="0.5"/>
<path d="M436.75 176.397C436.75 83.3397 379.099 62.2466 338.154 62.2466C295.315 62.2466 250.473 73.4054 213.982 95.6122C141.369 98.0725 95.539 184.745 95.539 247.121C95.539 291.789 133.905 363.753 218.375 363.753C348.656 363.753 436.75 269.455 436.75 176.397Z" fill="url(#paint1_linear_566_1024)" fill-opacity="0.5"/>
<ellipse cx="139.412" cy="218.582" rx="12.4077" ry="19.8523" fill="#213745"/>
<ellipse cx="297.431" cy="218.582" rx="12.4077" ry="19.8523" fill="#213745"/>
<path d="M256.841 260.87C256.841 230.559 247.157 188.805 219.012 188.805C190.868 188.805 182.395 230.25 182.395 260.87C182.395 291.49 204.789 295.511 221.131 295.511C237.473 295.511 256.841 289.325 256.841 260.87Z" fill="#213745"/>
<defs>
<linearGradient id="paint0_linear_566_1024" x1="160.059" y1="15.0974" x2="160.059" y2="363.753" gradientUnits="userSpaceOnUse">
<stop stop-color="#B8B3AC"/>
<stop offset="1" stop-color="#5C5956"/>
</linearGradient>
<linearGradient id="paint1_linear_566_1024" x1="276.691" y1="15.0974" x2="276.691" y2="363.753" gradientUnits="userSpaceOnUse">
<stop stop-color="#B8B3AC"/>
<stop offset="1" stop-color="#5C5956"/>
</linearGradient>
</defs>
</svg>
